<?xml version="1.0" encoding="UTF-8"?>
<svg xmlns="http://www.w3.org/2000/svg" version="1.1" viewBox="0 0 960 960">
  <defs>
    <style>
      .cls-1 {
        fill-rule: evenodd;
      }
    </style>
  </defs>
  <!-- Generator: Adobe Illustrator 28.7.1, SVG Export Plug-In . SVG Version: 1.2.0 Build 142)  -->
  <g>
    <g id="Layer_1">
      <path class="cls-1" d="M480.2,30.4C232,30.4,30.8,231.6,30.8,479.8s201.2,449.4,449.4,449.4,449.4-201.2,449.4-449.4S728.4,30.4,480.2,30.4ZM480.2,105.3c206.5,0,374.5,168,374.5,374.5s-168,374.5-374.5,374.5S105.7,686.3,105.7,479.8,273.7,105.3,480.2,105.3ZM480.2,217.7c-144.8,0-262.1,117.4-262.1,262.1s117.4,262.1,262.1,262.1,262.1-117.4,262.1-262.1-117.4-262.1-262.1-262.1ZM600.4,595.7c-4.7,7.8-14.8,10.1-22.5,5.5-61.5-37.6-139-46.1-230.3-25.3-8.8,2-17.6-3.5-19.5-12.3-2-8.8,3.4-17.6,12.3-19.6,99.8-22.8,185.5-13,254.6,29.2,7.7,4.7,10.1,14.8,5.4,22.5ZM632.5,524.4c-5.9,9.6-18.5,12.7-28.1,6.7-70.4-43.3-177.9-55.8-261.2-30.6-10.8,3.3-22.2-2.8-25.5-13.6-3.3-10.8,2.8-22.2,13.6-25.5,95.2-28.9,213.6-14.9,294.5,34.8,9.6,5.9,12.7,18.5,6.7,28.1ZM635.3,450.1c-84.5-50.2-223.9-54.8-304.6-30.3-12.9,3.9-26.6-3.4-30.6-16.3-3.9-13,3.4-26.7,16.3-30.6,92.6-28.1,246.5-22.7,343.8,35.1,11.6,6.9,15.5,21.9,8.6,33.6-6.9,11.6-22,15.5-33.6,8.6Z"/>
    </g>
  </g>
</svg>